<svg width="24" height="24" viewBox="0 0 24 24" fill="none" xmlns="http://www.w3.org/2000/svg">
<path d="M12 14L12.3536 14.3536L12 14.7071L11.6464 14.3536L12 14ZM11.5 5C11.5 4.72386 11.7239 4.5 12 4.5C12.2761 4.5 12.5 4.72386 12.5 5H11.5ZM17.3536 9.35355L12.3536 14.3536L11.6464 13.6464L16.6464 8.64645L17.3536 9.35355ZM11.6464 14.3536L6.64645 9.35355L7.35355 8.64645L12.3536 13.6464L11.6464 14.3536ZM11.5 14V5H12.5V14H11.5Z" fill="#222222"/>
<path d="M5 16L5 17C5 18.1046 5.89543 19 7 19L17 19C18.1046 19 19 18.1046 19 17V16" stroke="#222222"/>
</svg>
